<?xml version="1.0" encoding="UTF-8" standalone="no"?>
<!DOCTYPE svg PUBLIC "-//W3C//DTD SVG 1.1//EN"
 "http://www.w3.org/Graphics/SVG/1.1/DTD/svg11.dtd">
<!-- Generated by graphviz version 2.40.1 (20161225.0304)
 -->
<!-- Title: %3 Pages: 1 -->
<svg width="320pt" height="462pt"
 viewBox="0.00 0.00 319.74 462.02" xmlns="http://www.w3.org/2000/svg" xmlns:xlink="http://www.w3.org/1999/xlink">
<g id="graph0" class="graph" transform="scale(1 1) rotate(0) translate(4 458.0161)">
<title>%3</title>
<polygon fill="#ffffff" stroke="transparent" points="-4,4 -4,-458.0161 315.7392,-458.0161 315.7392,4 -4,4"/>
<!-- liba.a -->
<g id="node1" class="node">
<title>liba.a</title>
<ellipse fill="none" stroke="#000000" cx="142.2355" cy="-424.5124" rx="29.5074" ry="29.5074"/>
<text text-anchor="middle" x="142.2355" y="-420.3124" font-family="Times,serif" font-size="14.00" fill="#000000">liba.a</text>
</g>
<!-- libb.a -->
<g id="node2" class="node">
<title>libb.a</title>
<ellipse fill="none" stroke="#000000" cx="73.2355" cy="-293.0083" rx="30.0006" ry="30.0006"/>
<text text-anchor="middle" x="73.2355" y="-288.8083" font-family="Times,serif" font-size="14.00" fill="#000000">libb.a</text>
</g>
<!-- liba.a&#45;&gt;libb.a -->
<g id="edge1" class="edge">
<title>liba.a&#45;&gt;libb.a</title>
<path fill="none" stroke="#000000" d="M128.4382,-398.2166C117.9769,-378.279 103.4857,-350.6607 91.9755,-328.7239"/>
<polygon fill="#000000" stroke="#000000" points="94.9911,-326.9381 87.2455,-319.7093 88.7925,-330.1906 94.9911,-326.9381"/>
</g>
<!-- libc.a -->
<g id="node3" class="node">
<title>libc.a</title>
<ellipse fill="none" stroke="#000000" cx="143.2355" cy="-161.5043" rx="29.5074" ry="29.5074"/>
<text text-anchor="middle" x="143.2355" y="-157.3043" font-family="Times,serif" font-size="14.00" fill="#000000">libc.a</text>
</g>
<!-- liba.a&#45;&gt;libc.a -->
<g id="edge2" class="edge">
<title>liba.a&#45;&gt;libc.a</title>
<path fill="none" stroke="#000000" d="M142.3483,-394.8532C142.5288,-347.3716 142.8829,-254.2473 143.0849,-201.1215"/>
<polygon fill="#000000" stroke="#000000" points="146.585,-201.0683 143.1232,-191.055 139.5851,-201.0416 146.585,-201.0683"/>
</g>
<!-- libd.a -->
<g id="node4" class="node">
<title>libd.a</title>
<ellipse fill="none" stroke="#000000" cx="143.2355" cy="-30.0003" rx="30.0006" ry="30.0006"/>
<text text-anchor="middle" x="143.2355" y="-25.8003" font-family="Times,serif" font-size="14.00" fill="#000000">libd.a</text>
</g>
<!-- liba.a&#45;&gt;libd.a -->
<g id="edge3" class="edge">
<title>liba.a&#45;&gt;libd.a</title>
<path fill="none" stroke="#000000" d="M114.8773,-413.2102C82.3436,-398.0894 29.6332,-367.8713 7.2355,-323.0086 -4.676,-299.1498 .7579,-288.8763 7.2355,-263.008 27.1819,-183.3525 83.5892,-103.5217 117.1652,-61.1117"/>
<polygon fill="#000000" stroke="#000000" points="120.0325,-63.1308 123.5584,-53.1398 114.5716,-58.7513 120.0325,-63.1308"/>
</g>
<!-- libb.a&#45;&gt;libc.a -->
<g id="edge4" class="edge">
<title>libb.a&#45;&gt;libc.a</title>
<path fill="none" stroke="#000000" d="M87.4011,-266.3965C98.0976,-246.3018 112.876,-218.5386 124.5418,-196.6228"/>
<polygon fill="#000000" stroke="#000000" points="127.7206,-198.0997 129.3299,-187.6278 121.5415,-194.8105 127.7206,-198.0997"/>
</g>
<!-- libc.a&#45;&gt;libd.a -->
<g id="edge5" class="edge">
<title>libc.a&#45;&gt;libd.a</title>
<path fill="none" stroke="#000000" d="M122.6728,-140.0832C115.2064,-118.8134 114.235,-85.9587 119.7587,-61.6745"/>
<polygon fill="#000000" stroke="#000000" points="123.1835,-62.4247 122.5236,-51.8504 116.4453,-60.5282 123.1835,-62.4247"/>
</g>
<!-- libe.a -->
<g id="node5" class="node">
<title>libe.a</title>
<ellipse fill="none" stroke="#000000" cx="282.2355" cy="-30.0003" rx="29.5074" ry="29.5074"/>
<text text-anchor="middle" x="282.2355" y="-25.8003" font-family="Times,serif" font-size="14.00" fill="#000000">libe.a</text>
</g>
<!-- libc.a&#45;&gt;libe.a -->
<g id="edge6" class="edge">
<title>libc.a&#45;&gt;libe.a</title>
<path fill="none" stroke="#000000" d="M164.9543,-140.9568C188.7216,-118.4713 226.9383,-82.3155 253.2506,-57.4221"/>
<polygon fill="#000000" stroke="#000000" points="255.8104,-59.8185 260.6693,-50.4035 250.9997,-54.7335 255.8104,-59.8185"/>
</g>
<!-- libd.a&#45;&gt;libc.a -->
<g id="edge7" class="edge">
<title>libd.a&#45;&gt;libc.a</title>
<path fill="none" stroke="#000000" d="M163.9474,-51.8504C171.3268,-73.2746 172.2112,-106.1486 166.6005,-130.3171"/>
<polygon fill="#000000" stroke="#000000" points="163.1921,-129.5058 163.7982,-140.0832 169.9206,-131.4364 163.1921,-129.5058"/>
</g>
<!-- libe.a&#45;&gt;liba.a -->
<g id="edge8" class="edge">
<title>libe.a&#45;&gt;liba.a</title>
<path fill="none" stroke="#000000" d="M276.2017,-59.0092C264.5879,-112.4638 236.8192,-229.5882 198.2355,-323.0086 188.5521,-346.4545 174.8295,-371.4181 163.3921,-390.7216"/>
<polygon fill="#000000" stroke="#000000" points="160.3049,-389.0641 158.1552,-399.4386 166.3053,-392.669 160.3049,-389.0641"/>
</g>
</g>
</svg>
